# xmcd
#
# Track frame offsets: 
#        150
#        24273
#        50829
#        73937
#        94924
#        115902
#        133187
#        158223
#        179221
#        206506
#        226196
#        243679
#
# Disc length: 3601 seconds
#
# Revision: 0
# Processed by: cddbd v1.5.2PL0 Copyright (c) Steve Scherf et al.
# Submitted via: ExactAudioCopy v1.3
#
DISCID=b30e0f0c
DTITLE=Various Artist - Xuân Việt
DYEAR=2019
DGENRE=Beat
TTITLE0=Kiều Nga - Ly rượu mừng
TTITLE1=Duy Quang - Đón xuân này nhớ xuân xưa
TTITLE2=Chế Linh - Tôi chưa có mùa xuân
TTITLE3=Cánh thiệp đầu xuân
TTITLE4=Thế Sơn - Phiên gác đêm xuân
TTITLE5=Xuân họp mặt
TTITLE6=Xuân đã về
TTITLE7=Mừng nắng xuân về
TTITLE8=Chế Linh - Mùa xuân của mẹ
TTITLE9=Elvis Phương - Anh cho em mùa xuân
TTITLE10=Xuân họp mặt
TTITLE11=Đón xuân này nhớ xuân xưa
EXTD=
EXTT0=
EXTT1=
EXTT2=
EXTT3=
EXTT4=
EXTT5=
EXTT6=
EXTT7=
EXTT8=
EXTT9=
EXTT10=
EXTT11=
PLAYORDER=
